<?xml version="1.0" encoding="UTF-8"?>
<svg xmlns="http://www.w3.org/2000/svg" viewBox="0 0 512 512" role="img" aria-label="CorpFlowAI mark">
  <defs>
    <linearGradient id="cfMarkBg" x1="48" y1="256" x2="464" y2="256" gradientUnits="userSpaceOnUse">
      <stop offset="0%" stop-color="#0A7CC8"/>
      <stop offset="52%" stop-color="#14B0C8"/>
      <stop offset="100%" stop-color="#22D4C2"/>
    </linearGradient>
  </defs>
  <!-- Soft rounded tile; transparent outside corners -->
  <rect x="28" y="28" width="456" height="456" rx="116" ry="116" fill="url(#cfMarkBg)"/>

  <!-- Left human half -->
  <path
    fill="#0B1220"
    d="M256 148
       C230 148 210 158 198 174
       C186 190 180 212 180 238
       V254
       C162 260 150 278 150 298
       C150 320 166 338 188 344
       V396
       C188 422 206 444 232 454
       C244 459 250 460 256 460
       Z"
  />
  <!-- Left ear -->
  <ellipse cx="156" cy="298" rx="20" ry="28" fill="#0B1220"/>

  <!-- Right AI half -->
  <path
    fill="#8AF0E8"
    d="M256 148
       C282 148 302 158 314 174
       C326 190 332 212 332 238
       V254
       C350 260 362 278 362 298
       C362 320 346 338 324 344
       V396
       C324 422 306 444 280 454
       C268 459 262 460 256 460
       Z"
  />

  <!-- Center split -->
  <line x1="256" y1="166" x2="256" y2="444" stroke="#F7FFFE" stroke-width="6" stroke-linecap="round"/>

  <!-- Human features -->
  <circle cx="224" cy="274" r="15" fill="#F7FFFE"/>
  <path d="M208 318 Q230 342 248 318" fill="none" stroke="#F7FFFE" stroke-width="11" stroke-linecap="round"/>

  <!-- AI circuit -->
  <g stroke="#178A78" stroke-width="11" stroke-linecap="round">
    <line x1="270" y1="256" x2="324" y2="256"/>
    <line x1="270" y1="300" x2="308" y2="300"/>
  </g>
  <circle cx="324" cy="256" r="11" fill="#178A78"/>
  <circle cx="308" cy="300" r="11" fill="#178A78"/>
  <circle cx="324" cy="256" r="4.5" fill="#E8FFFC"/>
  <circle cx="308" cy="300" r="4.5" fill="#E8FFFC"/>
  <circle cx="352" cy="298" r="17" fill="#2BB888"/>
  <circle cx="352" cy="298" r="7" fill="#E8FFFC"/>
</svg>
